<?xml version="1.0" encoding="iso-8859-1"?>
<!-- Uploaded to: SVG Repo, www.svgrepo.com, Generator: SVG Repo Mixer Tools -->
<svg height="800px" width="800px" version="1.1" id="Layer_1" xmlns="http://www.w3.org/2000/svg" xmlns:xlink="http://www.w3.org/1999/xlink" 
	 viewBox="0 0 512 512" xml:space="preserve">
<g>
	<circle style="fill:#CFF09E;" cx="378.484" cy="351.397" r="93.704"/>
	<path style="fill:#CFF09E;" d="M252.329,144.829c-34.452,12.215-74.377,4.548-101.946-23.021s-35.237-67.494-23.021-101.946
		c34.452-12.215,74.377-4.548,101.946,23.021S264.544,110.377,252.329,144.829z"/>
</g>
<path style="fill:#507C5C;" d="M380.02,243.507c-4.311-30.214-11.711-66.872-24.216-95.863c7.134-4.469,13.76-9.74,19.792-15.772
	c30.394-30.394,40.746-76.228,26.372-116.768c-1.433-4.044-4.615-7.225-8.658-8.658c-40.54-14.376-86.372-4.024-116.768,26.37
	c-7.433,7.433-13.653,15.714-18.639,24.601c-4.952-8.912-11.143-17.215-18.529-24.601C218.21,11.654,190.07,0,160.139,0
	c-12.841,0-25.471,2.169-37.534,6.446c-4.044,1.433-7.225,4.615-8.658,8.658c-14.374,40.54-4.022,86.373,26.372,116.766
	c21.162,21.164,49.302,32.818,79.234,32.818c0.423,0,0.844-0.023,1.267-0.027c-1.225,6.173-2.592,12.089-4.099,17.677
	c-13.143,48.726-57.949,94.468-70.786,106.813c-2.887-0.225-5.794-0.374-8.738-0.374c-7.861,0-14.234,6.372-14.234,14.234
	s6.372,14.234,14.234,14.234c45.846,0,83.145,37.299,83.145,83.144c0,45.846-37.299,83.145-83.145,83.145
	S54.05,446.234,54.05,400.388c0-21.262,8.021-41.494,22.584-56.968c5.387-5.725,5.114-14.733-0.611-20.121
	s-14.733-5.114-20.121,0.611c-19.553,20.777-30.32,47.937-30.32,76.478C25.583,461.931,75.653,512,137.196,512
	s111.612-50.069,111.612-111.612c0-46.958-29.165-87.207-70.321-103.66c20.538-21.864,53.692-62.396,65.716-106.976
	c2.468-9.152,4.593-19.032,6.35-29.441c2.192-0.631,4.374-1.304,6.532-2.068c4.044-1.433,7.225-4.616,8.658-8.658
	c3.805-10.732,5.861-21.834,6.287-32.924c0.134-0.843,0.205-1.705,0.184-2.589c-0.554-23.094,8.132-44.801,24.456-61.126
	c21.034-21.036,51.988-29.204,80.505-21.709c7.493,28.518-0.675,59.469-21.709,80.505c-7.087,7.087-15.251,12.776-24.267,16.904
	c-0.139,0.064-0.268,0.142-0.404,0.211c-0.134,0.067-0.27,0.12-0.403,0.191c-0.078,0.043-0.148,0.093-0.225,0.137
	c-0.229,0.128-0.45,0.265-0.67,0.404c-0.185,0.118-0.37,0.235-0.548,0.36c-0.211,0.148-0.413,0.303-0.613,0.461
	c-0.174,0.137-0.346,0.272-0.512,0.416c-0.185,0.159-0.36,0.326-0.537,0.494c-0.165,0.158-0.329,0.316-0.485,0.481
	c-0.158,0.167-0.307,0.339-0.456,0.512c-0.155,0.179-0.309,0.36-0.454,0.548c-0.134,0.172-0.259,0.35-0.384,0.528
	c-0.139,0.198-0.278,0.397-0.407,0.601c-0.115,0.182-0.221,0.369-0.327,0.555c-0.12,0.209-0.238,0.42-0.346,0.635
	c-0.098,0.195-0.186,0.393-0.276,0.594c-0.097,0.215-0.192,0.43-0.278,0.649c-0.081,0.209-0.152,0.421-0.225,0.635
	c-0.073,0.216-0.145,0.431-0.208,0.652c-0.064,0.223-0.117,0.45-0.169,0.676c-0.05,0.216-0.1,0.43-0.139,0.648
	c-0.043,0.235-0.074,0.47-0.105,0.706c-0.028,0.216-0.057,0.431-0.075,0.649c-0.02,0.239-0.03,0.478-0.038,0.719
	c-0.007,0.219-0.016,0.438-0.013,0.658c0.003,0.236,0.017,0.473,0.031,0.71c0.014,0.228,0.028,0.454,0.054,0.682
	c0.026,0.228,0.061,0.455,0.098,0.683c0.038,0.236,0.077,0.471,0.127,0.707c0.047,0.219,0.104,0.437,0.161,0.655
	c0.064,0.242,0.13,0.483,0.206,0.722c0.068,0.214,0.147,0.426,0.226,0.638c0.088,0.236,0.179,0.473,0.282,0.706
	c0.037,0.084,0.063,0.169,0.101,0.253c0.04,0.088,0.095,0.162,0.137,0.249c0.09,0.186,0.167,0.376,0.265,0.559
	c14.29,26.602,22.522,66.203,27.153,98.502c-46.625,11.928-81.198,54.29-81.198,104.579c0,59.516,48.421,107.937,107.937,107.937
	s107.937-48.421,107.937-107.937C486.417,292.405,438.825,244.337,380.02,243.507z M160.447,111.742
	c-21.037-21.036-29.203-51.989-21.708-80.509c6.963-1.838,14.134-2.766,21.4-2.766c22.328,0,43.318,8.694,59.103,24.479
	c21.037,21.037,29.203,51.992,21.708,80.511c-6.963,1.838-14.135,2.766-21.4,2.766C197.224,136.223,176.232,127.53,160.447,111.742z
	 M378.48,430.875c-43.819,0-79.47-35.649-79.47-79.47c0-43.819,35.649-79.47,79.47-79.47s79.47,35.649,79.47,79.47
	C457.95,395.224,422.299,430.875,378.48,430.875z"/>
</svg>